<?xml version="1.0" encoding="utf-8"?>
<svg xmlns="http://www.w3.org/2000/svg" viewBox="0 0 512.9418 511.3257">
  <defs>
    <clipPath id="clip0_2025_5709">
      <rect width="103" height="30" fill="white"/>
    </clipPath>
  </defs>
  <g clip-path="url(#clip0_2025_5709)" style="" transform="matrix(17.10216522216797, 0, 0, 17.10216522216797, 0, 0)">
    <path d="M25.2061 23.2987C24.4696 22.7987 23.6662 22.3321 22.8628 21.9988C24.2688 21.3988 25.5742 20.5655 26.612 19.4989C28.6874 17.4324 29.9928 14.5659 29.9928 11.4327C29.9928 8.26621 28.7208 5.43303 26.612 3.36648C24.5366 1.2666 21.6912 0 18.5112 0H0.870329C0.636008 0 0.40169 0.0999945 0.267793 0.266652C0.100422 0.399979 0 0.633297 0 0.866617C0 1.09994 0.100422 1.33326 0.267793 1.46659C0.40169 1.63324 0.636008 1.73324 0.870329 1.73324C3.54825 1.73324 5.99189 2.83318 7.76599 4.56641C9.50666 6.333 10.6113 8.76617 10.6113 11.4327C10.6113 14.0992 9.50666 16.5324 7.76599 18.299C5.99189 20.0322 3.54825 21.1322 0.870329 21.1322C0.769904 21.1322 0.736433 21.1655 0.636008 21.1655C0.267793 21.2655 0 21.5655 0 21.9654V22.0654C0 22.5321 0.368215 22.8654 0.803379 22.8654H1.37244C3.31394 22.9654 5.12154 23.5987 6.5944 24.6653C8.20117 25.8319 9.43971 27.4318 10.1092 29.3317C10.2096 29.665 10.5778 29.8983 10.9126 29.8983H28.5869C28.8547 29.8983 29.1225 29.765 29.2564 29.5317C29.4238 29.2984 29.4573 29.0317 29.3569 28.7651C28.5535 26.5652 27.1141 24.6653 25.2061 23.2987ZM8.97106 19.4989C11.0465 17.4324 12.352 14.5659 12.352 11.4327C12.352 8.26621 11.08 5.43303 8.97106 3.36648C8.33507 2.73318 7.63209 2.16655 6.8622 1.69991H18.5112C21.1892 1.69991 23.6328 2.79984 25.4069 4.53307C27.1475 6.29965 28.2522 8.73286 28.2522 11.3994C28.2522 14.0659 27.1475 16.4991 25.4069 18.2657C23.6328 19.9989 21.1892 21.0988 18.5112 21.0988C18.4443 21.0988 18.4108 21.0988 18.3439 21.1322H6.82873C7.59862 20.7322 8.33507 20.1656 8.97106 19.4989ZM7.56518 23.2987C7.36433 23.1654 7.13 23.0321 6.92915 22.8654H19.0468C20.9883 22.9654 22.7959 23.5987 24.2688 24.6653C25.5408 25.5652 26.5785 26.7652 27.2814 28.1984H11.4482C10.6448 26.2319 9.27234 24.5653 7.56518 23.2987Z" fill="#222222"/>
    <path d="M15.834 11.4329C15.834 11.8995 16.2022 12.2662 16.6709 12.2662H25.1733C25.6419 12.2662 26.0101 11.8995 26.0101 11.4329C26.0101 10.9663 25.6419 10.5996 25.1733 10.5996H16.7043C16.2022 10.5996 15.834 10.9996 15.834 11.4329Z" fill="#222222"/>
    <path d="M15.2314 15.6656H23.7338C24.2025 15.6656 24.5707 15.2989 24.5707 14.8323C24.5707 14.3656 24.2025 13.999 23.7338 13.999H15.2314C14.7627 13.999 14.3945 14.3656 14.3945 14.8323C14.3611 15.2989 14.7627 15.6656 15.2314 15.6656Z" fill="#222222"/>
    <path d="M15.2314 8.8995H23.7338C24.2025 8.8995 24.5707 8.53284 24.5707 8.06622C24.5707 7.59957 24.2025 7.23291 23.7338 7.23291H15.2314C14.7627 7.23291 14.3945 7.59957 14.3945 8.06622C14.3611 8.49953 14.7627 8.8995 15.2314 8.8995Z" fill="#222222"/>
  </g>
</svg>